<svg xmlns="http://www.w3.org/2000/svg" version="1.2" baseProfile="tiny-ps" viewBox="0 0 1254 1254"><title>AJIAL Investment</title><desc>AJIAL Investment brand mark</desc><rect width="1254" height="1254" fill="#000"/><path fill="#bc9037" stroke="#bc9037" stroke-width="1" opacity="1" d="M 633.5 210 L 636.5 210 L 642.5 214 L 708 261.5 L 708 347.5 L 706 353.5 L 706 355.5 Q 699.7 378.7 684.5 393 L 684 266 L 676.5 261 L 676 394.5 Q 673.3 396.2 675 402.5 L 668.5 409 L 662 413 L 662 250.5 L 660.5 249 L 634.5 230 L 579 269.5 L 579 476.5 L 577 477 L 577 478.5 L 565 490.5 L 565 492 L 561 489.5 L 561 261.5 L 564.5 258 L 633.5 210 Z " /><path fill="#bc9037" stroke="#bc9037" stroke-width="1" opacity="1" d="M 622.5 242 L 627 245.5 L 627 438.5 L 625.5 439 L 616.5 445 L 615 443.5 L 615 397.5 L 616 396.5 L 616 303.5 L 615 298.5 L 616 297.5 L 616 273.5 L 615 272.5 L 615 247.5 L 622.5 242 Z " /><path fill="#bc9037" stroke="#bc9037" stroke-width="1" opacity="1" d="M 643.5 243 L 651 248.5 L 651 421.5 L 647.5 425 L 639 430 L 639 246.5 L 640.5 245 L 643.5 243 Z " /><path fill="#bc9037" stroke="#bc9037" stroke-width="1" opacity="1" d="M 598.5 260 L 603 262 L 603 455.5 L 600.5 458 L 592 463 L 592 265.5 L 596.5 261 L 598.5 260 Z " /><path fill="#bc9037" stroke="#bc9037" stroke-width="1" opacity="1" d="M 523 281 L 535.5 281 L 537 282.5 L 537 292.5 L 535.5 294 L 524.5 294 L 523 292.5 L 523 281 Z " /><path fill="#bc9037" stroke="#bc9037" stroke-width="1" opacity="1" d="M 473.5 296 L 544 346.5 L 544 368.5 L 543 369.5 L 543 444.5 Q 545.5 446 544 451.5 L 543 452.5 L 543 473.5 L 543 475.5 L 544 478.5 L 543 479.5 L 543 498.5 L 543 500.5 L 544 533.5 L 543 537.5 L 544 538.5 L 544 547.5 L 541 557.5 L 533 573.5 L 524 587 L 522 586.5 L 522 351.5 L 520.5 351 L 514.5 346 L 514 597.5 L 507.5 604 L 501.5 609 Q 498.7 607.8 501 606.5 L 501 562.5 L 502 561.5 L 502 545.5 L 501 544.5 L 501 496.5 L 502 495.5 L 502 487.5 L 501 486.5 L 501 475.5 Q 503.5 474 502 468.5 L 501 467.5 L 501 378.5 L 502 375.5 L 501 374.5 L 501 336.5 L 499.5 335 L 480.5 321 L 472.5 317 L 420 353 L 420 668.5 L 418.5 669 L 417 672 L 403 683 L 403 345.5 L 404.5 345 L 473.5 296 Z " /><path fill="#bc9037" stroke="#bc9037" stroke-width="1" opacity="1" d="M 796.5 296 Q 835.1 319.9 870 347.5 L 869 421.5 L 870 422.5 L 870 448.5 L 869 449.5 L 869 478.5 L 870 479.5 L 870 487.5 L 869 490.5 L 870 492.5 L 869 493.5 L 869 514.5 Q 871.5 516 870 521.5 L 869 522.5 L 869 901.5 L 870 906.5 L 869 907.5 L 869 941.5 L 870 942.5 L 870 952.5 L 869 953.5 L 869 998 L 846.5 998 L 845 996.5 L 845 351.5 L 843.5 351 L 837 347 L 837 997.5 L 836.5 998 L 825 998 L 825 341.5 L 824 338.5 L 825 337.5 L 821.5 334 L 796.5 317 L 743 355.5 L 743 427.5 Q 745.3 428.8 744 433.5 L 743 434.5 L 743 661.5 L 738 674 Q 735 673 736 676 L 738.5 677 Q 740.3 673.3 742 676.5 L 744 731.5 L 743 732.5 L 743 799.5 L 744 800.5 L 744 812.5 L 743 813.5 L 743 888.5 L 744 889.5 L 744 923.5 L 745 924.5 L 744 928.5 L 745 931.5 L 744 932.5 L 744 940.5 L 745 941.5 L 745 973.5 L 744 978.5 L 745 979.5 L 745 996.5 L 743.5 998 L 727.5 998 L 726 996.5 L 725.5 703 L 721 711.5 L 721 998 L 701.5 998 L 701 997.5 L 701 739.5 L 697 742.5 L 697 958.5 L 696 960.5 L 697 961.5 L 697 996.5 L 695.5 998 L 684 998 L 684 858.5 L 683 856.5 L 684 855.5 L 684 755.5 L 680.5 758 L 675 762.5 L 675 996.5 L 673.5 998 L 663.5 998 L 662 996.5 L 662 773.5 L 660.5 773 L 651 780.5 L 651 996.5 L 649.5 998 L 640.5 998 L 639 996.5 L 638 817.5 L 639 816.5 L 639 788 L 627 795 L 627 997.5 L 626.5 998 L 616.5 998 L 615 996.5 L 615 979.5 L 616 978.5 L 616 934.5 L 615 933.5 L 614.5 804 L 603 812 L 603 996.5 L 601.5 998 L 593.5 998 L 592 996.5 L 591.5 823 Q 582.8 830.8 577 841.5 L 578 843.5 L 577 844.5 L 577 853.5 L 578 854.5 L 578 867.5 L 577 869.5 L 578 871.5 L 577 872.5 L 577 896.5 L 578 897.5 L 578 905.5 L 577 906.5 L 577 938.5 L 577 940.5 L 578 970.5 L 577 973.5 L 578 975.5 L 577 976.5 L 577 984.5 L 578 985.5 L 578 998 L 561.5 998 L 561 997.5 L 561 916.5 L 562 915.5 L 562 907.5 L 561 906.5 L 561 889.5 L 556 879.5 L 556 861.5 L 558 850.5 L 564 833.5 Q 573 816.5 586.5 804 L 609.5 785 L 655.5 754 L 686 727.5 L 706 701.5 L 711 688.5 L 713 686.5 L 721 661.5 L 719 662.5 L 714 674.5 L 705 687.5 L 687.5 706 L 665.5 724 L 612.5 759 L 593 775.5 Q 593.8 777.8 591.5 777 L 587.5 782 L 585 783.5 Q 563.8 808.3 553.5 844 Q 548.1 835.9 550 820.5 L 551 819.5 L 551 808.5 L 560 785.5 Q 571.6 764.6 588.5 749 L 611.5 731 L 658.5 701 L 686 677.5 L 707 650.5 L 715 629.5 L 716 617.5 L 715 617.5 L 712 626.5 L 702 643 Q 699.3 641.9 700 644.5 L 693 654 L 690 655.5 Q 690.8 657.8 688.5 657 Q 677.2 671.7 661.5 682 L 660 680.5 L 660 669.5 L 661 668.5 L 661 647.5 L 659.5 648 L 651 653.5 L 651 689.5 L 649.5 691 L 642.5 696 L 638 697 L 639 662 L 627 669 L 627 706.5 L 625.5 708 L 616.5 714 L 615 711.5 L 616 709.5 L 615 708.5 L 614.5 678 L 614 680 L 603 687 L 603 724.5 L 601.5 726 L 592.5 732 L 591 730.5 L 591 716.5 L 592 715.5 L 592 699.5 L 588 702.5 L 578 716.5 L 578 749.5 Q 569.8 755.2 566 764 L 563 762.5 L 557 750.5 L 551 733.5 L 551 731.5 L 550 729.5 L 550 727.5 L 548 718.5 L 548 691.5 L 555 667.5 L 562 654.5 L 569 644.5 L 589.5 623 L 592 621.5 Q 591.3 619.3 593.5 620 L 613.5 604 L 656.5 577 L 691 546.5 Q 702.7 534.2 710 517.5 Q 714.7 507.2 716 493.5 L 714.5 486 L 712 495.5 L 706 508.5 Q 697.3 523.3 685.5 535 L 681 538.5 Q 681.8 540.8 679.5 540 L 662.5 555 L 662 507.5 L 661 506.5 L 661.5 505 L 651 511 L 651 563.5 L 649.5 564 L 639.5 572 L 639 520 L 627 527.5 L 627 580.5 L 625.5 582 L 616.5 588 L 615 586.5 L 614.5 536 L 603 544 L 603 598.5 L 601.5 599 L 592.5 606 L 591.5 554 Q 582.9 561.4 578 572.5 L 578 623.5 L 564.5 639 L 562 635.5 Q 563.3 630.8 561 629.5 L 561 627.5 L 562 625.5 Q 558.9 621.6 559.5 614 L 558 618.5 L 558 620.5 L 554 639.5 L 549 650.5 L 543 658.5 L 543 998 L 522.5 998 L 522 997.5 L 522 810.5 Q 519.3 808.8 521 802.5 L 522 797.5 L 521 796.5 L 521 788.5 L 522 787.5 L 522 689.5 L 520.5 682 L 514 688.5 L 514 996.5 L 512.5 998 L 502.5 998 L 501 996.5 L 502 885.5 Q 499.8 884.3 501 879.5 L 502 878.5 L 502 869.5 L 501 868.5 L 501 796.5 L 502 795.5 L 502 786.5 L 501 785.5 L 501 764.5 L 502 763.5 L 502 755.5 L 501 754.5 L 501 745.5 L 502 741.5 L 501 740.5 L 500.5 698 L 491 705.5 L 491 892.5 L 490 895.5 L 491 896.5 L 491 916.5 L 490 917.5 L 490 942.5 L 491 943.5 L 491 996.5 L 489.5 998 L 479 998 L 478.5 713 L 467 721.5 L 467 997.5 L 466.5 998 L 456 998 L 456 982.5 L 455 981.5 L 455 945.5 L 456 944.5 L 456 927.5 L 455 926.5 L 455 800.5 L 456 799.5 L 456 729 L 443 738.5 L 443 740.5 L 444 747.5 L 443 750.5 L 444 751.5 L 444 796.5 L 443 797.5 L 443 821.5 L 444 822.5 L 444 996.5 L 442.5 998 L 432 998 L 431.5 747 L 420 757.5 L 420 936.5 L 421 937.5 L 421 998 L 403.5 998 L 402 996.5 L 402 883.5 L 403 882.5 L 403 839.5 L 388 814.5 L 381 796.5 L 377 776.5 L 376 756.5 L 377 755.5 L 377 745.5 L 379 736.5 L 388 714.5 Q 399.1 696.6 414.5 683 L 444.5 661 L 487.5 636 Q 507.4 621.4 524 603.5 L 540 581.5 Q 540.3 575.3 544 572.5 L 548 559.5 L 550 543.5 L 556 524.5 Q 564.6 503.6 579.5 489 Q 581.8 489.8 581 487.5 L 607.5 466 L 634.5 450 L 660.5 432 L 679 417 Q 677.9 414.3 680.5 415 Q 697.2 399.2 708 377.5 L 713 363.5 L 716 347.5 L 715 344.5 L 716 339.5 Q 713.5 338 715 332.5 L 716.5 330 L 719 332.5 L 722 344.5 L 722 346.5 Q 724.6 354.4 723 366.5 L 725.5 375 L 726 346.5 L 727.5 345 L 796.5 296 Z M 715 401 L 711 410 L 698 428 L 673 451 Q 670 450 671 453 L 610 493 Q 607 492 608 495 L 595 505 L 593 508 L 590 509 L 580 522 L 568 541 L 562 553 L 557 573 L 555 576 Q 554 580 556 582 Q 555 586 558 585 Q 559 575 563 567 L 577 546 L 597 526 Q 624 504 656 486 L 674 470 Q 676 471 675 469 L 678 467 Q 690 455 699 441 L 708 424 L 715 404 L 715 401 Z M 726 416 Q 723 417 725 419 L 719 443 L 711 459 Q 721 473 725 495 L 726 495 L 726 484 L 725 483 L 726 478 L 726 468 L 725 467 L 726 463 L 726 441 L 726 439 Q 727 434 725 433 L 726 428 L 726 416 Z M 683 488 L 676 495 L 676 530 L 683 524 L 683 488 Z M 717 545 L 711 555 L 694 575 L 665 599 Q 631 619 601 643 Q 585 657 574 675 L 566 691 L 560 710 L 561 712 L 560 714 L 561 718 Q 567 698 580 685 L 598 668 L 620 652 L 622 652 L 643 638 L 675 613 Q 691 598 703 580 L 714 559 L 717 549 L 717 545 Z M 726 571 L 722 584 L 718 590 L 726 611 L 726 605 L 725 600 L 726 596 L 726 585 L 725 584 L 726 581 L 726 571 Z M 545 605 Q 538 618 529 628 Q 516 642 501 653 L 449 687 L 435 698 Q 405 720 394 761 L 395 762 L 405 745 L 425 726 L 485 686 L 504 670 Q 518 658 529 642 L 541 619 L 543 610 L 545 607 L 545 605 Z M 684 629 L 676 636 L 677 654 L 684 646 L 684 629 Z M 444 675 L 440 679 Q 437 678 438 681 L 446 676 L 444 675 Z M 431 685 L 428 688 Q 425 687 426 690 L 422 693 L 423 694 L 432 686 L 431 685 Z M 610 746 L 608 747 L 603 753 L 611 747 L 610 746 Z M 403 787 L 400 793 L 400 806 L 402 815 L 403 815 L 403 787 Z " /><path fill="#bc9037" stroke="#bc9037" stroke-width="1" opacity="1" d="M 462.5 329 L 466 330 L 467 332.5 L 467 633.5 L 456 640 L 455 631.5 L 456 630.5 L 456 606.5 L 455 605.5 L 455 578.5 L 456 577.5 L 456 563.5 L 455 561.5 L 456 560.5 L 456 547.5 L 455 546.5 L 455 515.5 L 456 514.5 L 456 469.5 L 455 464.5 L 456 463.5 L 456 333.5 L 458.5 331 L 462.5 329 Z " /><path fill="#bc9037" stroke="#bc9037" stroke-width="1" opacity="1" d="M 785.5 329 Q 789.5 328.5 790 331.5 L 790 997.5 L 789.5 998 L 779.5 998 L 778 996.5 L 778 847.5 L 779 846.5 L 779 832.5 L 778 831.5 L 778 774.5 L 779 770.5 L 778 769.5 L 778 758.5 L 778 756.5 L 778 665.5 L 779 662.5 L 778 661.5 L 778 354.5 L 779 353.5 L 779 333 L 785.5 329 Z " /><path fill="#bc9037" stroke="#bc9037" stroke-width="1" opacity="1" d="M 805.5 330 L 814 335 L 814 996.5 L 812.5 998 L 803.5 998 L 802 996.5 L 802 333.5 L 805.5 330 Z " /><path fill="#bc9037" stroke="#bc9037" stroke-width="1" opacity="1" d="M 483.5 332 L 491 337.5 L 491 530.5 L 490 531.5 L 490 542.5 Q 492.3 543.8 491 548.5 L 490 549.5 L 490 560.5 L 491 561.5 L 491 571.5 L 490 574.5 L 491 575.5 L 491 606.5 L 490 607.5 L 490 618 L 479 624 L 479 335.5 L 481.5 333 L 483.5 332 Z " /><path fill="#bc9037" stroke="#bc9037" stroke-width="1" opacity="1" d="M 762.5 346 L 767 349.5 L 767 997.5 L 766.5 998 L 756.5 998 L 755 996.5 L 755 904.5 L 755 902.5 L 756 896.5 L 755 895.5 L 755 654.5 L 756 649.5 L 755 648.5 L 755 351.5 L 762.5 346 Z " /><path fill="#bc9037" stroke="#bc9037" stroke-width="1" opacity="1" d="M 436.5 347 Q 441.3 347.3 443 350.5 L 443 505.5 L 444 507.5 L 444 509.5 L 443 511.5 L 443 513.5 L 444 518.5 L 443 519.5 L 443 532.5 L 444 534.5 L 443 535.5 L 443 651 L 432 657 L 432 350.5 L 433.5 350 L 436.5 347 Z " /></svg>